<svg width="22" height="20" fill="none" xmlns="http://www.w3.org/2000/svg"><path d="M11.186 19.998h-.195a9.937 9.937 0 01-9.754-9.361.72.72 0 011.22-.55c.14.132.222.314.229.506a8.471 8.471 0 008.327 7.957h.168a8.375 8.375 0 008.569-7.95 9.796 9.796 0 00-2.695-6.94 7.876 7.876 0 00-6.035-2.197H11a.73.73 0 01-.022-1.46h.351a9.33 9.33 0 016.75 2.628 11.295 11.295 0 013.121 7.996 9.824 9.824 0 01-10.014 9.371z" fill="#4A4A4A"/><path d="M.723 11.105a.717.717 0 01-.51-.206.732.732 0 010-1.035l1.23-1.245a.708.708 0 01.513-.21.706.706 0 01.514.21l1.246 1.245a.733.733 0 010 1.03.728.728 0 01-1.027 0l-.727-.728-.718.723a.7.7 0 01-.52.216zm13.798 3.249a.734.734 0 01-.523-.221l-3.296-3.405a.727.727 0 01-.208-.506v-6.46a.728.728 0 011.24-.516.736.736 0 01.212.516V9.93l3.095 3.195a.725.725 0 01-.52 1.229z" fill="#4A4A4A"/></svg>